<?xml version="1.0" encoding="UTF-8" standalone="no"?>
<svg id="gamma-function"
   version="1.1"
   baseProfile="full"
   xmlns="http://www.w3.org/2000/svg"
   xmlns:xlink="http://www.w3.org/1999/xlink"
   xmlns:ev="http://www.w3.org/2001/xml-events"
   width="440"
   height="440">

  <title>Gamma.svg - a nice plot of the gamma function</title>
  <desc>
     Gamma-function ( n! = Gamma(n+1) )
     from Wikimedia Commons
     plot-range: -4 to 4
     plotted with cubic bezier-curves
     the bezier-controll-points are calculated to give
     an extremely accurate result. Error is around 10^(-6) of a unit.
     symbols in "Computer Modern" (TeX) font embedded
     created with a plain text editor using GNU/Linux

     about: http://commons.wikimedia.org/wiki/Image:Gamma-function.svg
     source: http://commons.wikimedia.org/
     rights: GNU Free Documentation license,
             Creative Commons Attribution ShareAlike license
  </desc>

  <defs>
    <!-- pstricks-style arrow, zoom 1.5 -->
    <marker id="Arrow" refX="2.52" refY="2.25" markerUnits="strokeWidth"
       markerWidth="6" markerHeight="4.5" orient="auto">
      <path d="M 2.52 2.25 L 0 4.5 L 6 2.25 L 0 0 z" />
    </marker>

    <line id="xgridline" x1="0" x2="0" y1="180" y2="-180" stroke="black"
       stroke-width="0.5" stroke-linecap="square" opacity="0.4" />
    <line id="ygridline" x1="-180" x2="180" y1="0" y2="-0" 
       stroke="black" stroke-width="0.5" stroke-linecap="square"
       opacity="0.4"/>
    <line id="xtick" x1="0" x2="0" y1="5" y2="-5" stroke="black"
       stroke-width="1" stroke-linecap="square" opacity="1" />
    <line id="ytick" x1="-5" x2="5" y1="0" y2="-0" stroke="black"
       stroke-width="1" stroke-linecap="square" opacity="1" />

    <!-- now the used chars in "Computer Modern" font. They are implemented
         as plain paths and not as glyphs just because it didn't work -->

    <!-- Gamma: horiz-adv-x="625"-->
    <path id="Gamma"
       d="M 33 0 m 521 680 h -521 v -31 h 24 c 77 0 79 -11 79 -47 v -524
          c 0 -36 -2 -47 -79 -47 h -24 v -31 c 35 3 113 3 152 3
          c 41 0 132 0 168 -3 v 31 h -33 c -95 0 -95 13 -95 48 v 530
          c 0 33 2 40 49 40 h 103 c 143 0 164 -59 180 -194 h 25 z"/>
    <!-- (: horiz-adv-x="388.9"-->
    <path id="parleft"
       d="M 99 0 m 232 -240 c 0 3 0 5 -17 22 c -125 126 -157 315 -157 468
          c 0 174 38 348 161 473 c 13 12 13 14 13 17 c 0 7 -4 10 -10 10
          c -10 0 -100 -68 -159 -195 c -51 -110 -63 -221 -63 -305
          c 0 -78 11 -199 66 -312 c 60 -123 146 -188 156 -188 c 6 0 10 3 10 10
          z"/>
    <!-- ): horiz-adv-x="388.9"-->
    <path id="parright"
       d="M 57 0 m 232 250 c 0 78 -11 199 -66 312 c -60 123 -146 188 -156 188
          c -6 0 -10 -4 -10 -10 c 0 -3 0 -5 19 -23 c 98 -99 155 -258 155 -467
          c 0 -171 -37 -347 -161 -473 c -13 -12 -13 -14 -13 -17
          c 0 -6 4 -10 10 -10 c 10 0 100 68 159 195 c 51 110 63 221 63 305 z"/>
    <!-- x: horiz-adv-x="527.8"-->
    <path id="x"
       d="M 29 0 m 305 302 c 6 26 29 118 99 118 c 5 0 29 0 50 -13
          c -28 -5 -48 -30 -48 -54 c 0 -16 11 -35 38 -35 c 22 0 54 18 54 58
          c 0 52 -59 66 -93 66 c -58 0 -93 -53 -105 -76 c -25 66 -79 76 -108 76
          c -104 0 -161 -129 -161 -154 c 0 -10 10 -10 12 -10 c 8 0 11 2 13 11
          c 34 106 100 131 134 131 c 19 0 54 -9 54 -67 c 0 -31 -17 -98 -54 -238
          c -16 -62 -51 -104 -95 -104 c -6 0 -29 0 -50 13 c 25 5 47 26 47 54
          c 0 27 -22 35 -37 35 c -30 0 -55 -26 -55 -58 c 0 -46 50 -66 94 -66
          c 66 0 102 70 105 76 c 12 -37 48 -76 108 -76 c 103 0 160 129 160 154
          c 0 10 -9 10 -12 10 c -9 0 -11 -4 -13 -11
          c -33 -107 -101 -131 -133 -131 c -39 0 -55 32 -55 66
          c 0 22 6 44 17 88 z"/>
    <!-- minus: horiz-adv-x="700"-->
    <path id="minus"
       d="M 83 0 m 578 230 c 14 0 33 0 33 20 c 0 20 -19 20 -33 20 h -467.2
          c -14 0 -33 0 -33 -20 c 0 -20 19 -20 33 -20 z"/>
    <!-- 1: horiz-adv-x="500"-->
    <path id="one"
       d="M 89 0 m 205 640 c 0 24 0 26 -23 26 c -62 -64 -150 -64 -182 -64 v -31
          c 20 0 79 0 131 26 v -518 c 0 -36 -3 -48 -93 -48 h -32 v -31
          c 35 3 122 3 162 3 c 40 0 127 0 162 -3 v 31 h -32
          c -90 0 -93 11 -93 48 z"/>
    <!-- 2: horiz-adv-x="500"-->
    <path id="two"
       d="M 50 0 m 399 174 h -25 c -5 -30 -12 -74 -22 -89 c -7 -8 -73 -8 -95 -8
          h -180 l 106 103 c 156 138 216 192 216 292 c 0 114 -90 194 -212 194
          c -113 0 -187 -92 -187 -181 c 0 -56 50 -56 53 -56 c 17 0 52 12 52 53
          c 0 26 -18 52 -53 52 c -8 0 -10 0 -13 -1 c 23 65 77 102 135 102
          c 91 0 134 -81 134 -163 c 0 -80 -50 -159 -105 -221 l -192 -214
          c -11 -11 -11 -13 -11 -37 h 371 z"/>
    <!-- 3: horiz-adv-x="500"-->
    <path id="three"
       d="M 42 0 m 248 352 c 82 27 140 97 140 176 c 0 82 -88 138 -184 138
          c -101 0 -177 -60 -177 -136 c 0 -33 22 -52 51 -52 c 31 0 51 22 51 51
          c 0 50 -47 50 -62 50 c 31 49 97 62 133 62 c 41 0 96 -22 96 -112
          c 0 -12 -2 -70 -28 -114 c -30 -48 -64 -51 -89 -52
          c -8 -1 -32 -3 -39 -3 c -8 -1 -15 -2 -15 -12 c 0 -11 7 -11 24 -11
          h 44 c 82 0 119 -68 119 -166 c 0 -136 -69 -165 -113 -165
          c -43 0 -118 17 -153 76 c 35 -5 66 17 66 55 c 0 36 -27 56 -56 56
          c -24 0 -56 -14 -56 -58 c 0 -91 93 -157 202 -157
          c 122 0 213 91 213 193 c 0 82 -63 160 -167 181 z"/>
    <!-- 4: horiz-adv-x="500"-->
    <path id="four"
       d="M 28 0 m 0 165 h 266 v -87 c 0 -36 -2 -47 -76 -47 h -21 v -31
          c 41 3 93 3 135 3 c 42 0 95 0 136 -3 v 31 h -21 c -74 0 -76 11 -76 47
          v 87 h 100 v 31 h -100 v 455 c 0 20 0 26 -16 26 c -9 0 -12 0 -20 -12
          l -307 -469 z M 28 196 m 272 0 h -244 l 244 373 z"/>

    <!--string expressions -->
    <g id="Gammax" transform="scale(0.02,-0.02)">
      <use xlink:href="#Gamma" x="-1974.3" y="0" />
      <use xlink:href="#parleft" x="-1349.3" y="0" />
      <use xlink:href="#x" x="-960.4" y="0" />
      <use xlink:href="#parright" x="-388.9" y="0" />
    </g>
    <g id="xl" transform="scale(0.02,-0.02)">
      <use xlink:href="#x" x="-285.75" y="0" />
    </g>
    <g id="xm4" transform="scale(0.02,-0.02)">
      <use xlink:href="#minus" x="-950" y="0" />
      <use xlink:href="#four" x="-250" y="0" />
    </g>
    <g id="xm3" transform="scale(0.02,-0.02)">
      <use xlink:href="#minus" x="-950" y="0" />
      <use xlink:href="#three" x="-250" y="0" />
    </g>
    <g id="xm2" transform="scale(0.02,-0.02)">
      <use xlink:href="#minus" x="-950" y="0" />
      <use xlink:href="#two" x="-250" y="0" />
    </g>
    <g id="xm1" transform="scale(0.02,-0.02)">
      <use xlink:href="#minus" x="-950" y="0" />
      <use xlink:href="#one" x="-250" y="0" />
    </g>
    <g id="x1" transform="scale(0.02,-0.02)">
      <use xlink:href="#one" x="-250" y="0" />
    </g>
    <g id="x2" transform="scale(0.02,-0.02)">
      <use xlink:href="#two" x="-250" y="0" />
    </g>
    <g id="x3" transform="scale(0.02,-0.02)">
      <use xlink:href="#three" x="-250" y="0" />
    </g>
    <g id="x4" transform="scale(0.02,-0.02)">
      <use xlink:href="#four" x="-250" y="0" />
    </g>

    <g id="ym4" transform="scale(0.02,-0.02)">
      <use xlink:href="#minus" x="-1200" y="0" />
      <use xlink:href="#four" x="-500" y="0" />
    </g>
    <g id="ym3" transform="scale(0.02,-0.02)">
      <use xlink:href="#minus" x="-1200" y="0" />
      <use xlink:href="#three" x="-500" y="0" />
    </g>
    <g id="ym2" transform="scale(0.02,-0.02)">
      <use xlink:href="#minus" x="-1200" y="0" />
      <use xlink:href="#two" x="-500" y="0" />
    </g>
    <g id="ym1" transform="scale(0.02,-0.02)">
      <use xlink:href="#minus" x="-1200" y="0" />
      <use xlink:href="#one" x="-500" y="0" />
    </g>
    <g id="y1" transform="scale(0.02,-0.02)">
      <use xlink:href="#one" x="-500" y="0" />
    </g>
    <g id="y2" transform="scale(0.02,-0.02)">
      <use xlink:href="#two" x="-500" y="0" />
    </g>
    <g id="y3" transform="scale(0.02,-0.02)">
      <use xlink:href="#three" x="-500" y="0" />
    </g>
    <g id="y4" transform="scale(0.02,-0.02)">
      <use xlink:href="#four" x="-500" y="0" />
    </g>
  </defs>



  <g transform="translate(220.5, 219.5)">
    <!-- grid -->
    <use xlink:href="#xgridline" x="-160" y="0" />
    <use xlink:href="#xgridline" x="-120" y="0" />
    <use xlink:href="#xgridline" x="-80" y="0" />
    <use xlink:href="#xgridline" x="-40" y="0" />
    <use xlink:href="#xgridline" x="40" y="0" />
    <use xlink:href="#xgridline" x="80" y="0" />
    <use xlink:href="#xgridline" x="120" y="0" />
    <use xlink:href="#xgridline" x="160" y="0" />
    <use xlink:href="#ygridline" x="0" y="-160" />
    <use xlink:href="#ygridline" x="0" y="-120" />
    <use xlink:href="#ygridline" x="0" y="-80" />
    <use xlink:href="#ygridline" x="0" y="-40" />
    <use xlink:href="#ygridline" x="0" y="40" />
    <use xlink:href="#ygridline" x="0" y="80" />
    <use xlink:href="#ygridline" x="0" y="120" />
    <use xlink:href="#ygridline" x="0" y="160" />

    <!-- ticks -->
    <use xlink:href="#xtick" x="-160" y="0" />
    <use xlink:href="#xtick" x="-120" y="0" />
    <use xlink:href="#xtick" x="-80" y="0" />
    <use xlink:href="#xtick" x="-40" y="0" />
    <use xlink:href="#xtick" x="40" y="0" />
    <use xlink:href="#xtick" x="80" y="0" />
    <use xlink:href="#xtick" x="120" y="0" />
    <use xlink:href="#xtick" x="160" y="0" />
    <use xlink:href="#ytick" x="0" y="-160" />
    <use xlink:href="#ytick" x="0" y="-120" />
    <use xlink:href="#ytick" x="0" y="-80" />
    <use xlink:href="#ytick" x="0" y="-40" />
    <use xlink:href="#ytick" x="0" y="40" />
    <use xlink:href="#ytick" x="0" y="80" />
    <use xlink:href="#ytick" x="0" y="120" />
    <use xlink:href="#ytick" x="0" y="160" />

    <!-- axes -->
    <line id="x-axis" x1="-199.5" x2="199.5" y1="0" y2="0" stroke="black"
       stroke-width="2" stroke-linecap="square" marker-end="url(#Arrow)" />
    <line id="y-axis" x1="0" x2="0" y1="199.5" y2="-199.5" stroke="black"
       stroke-width="2" stroke-linecap="square" marker-end="url(#Arrow)" />

    <!-- labels -->
    <use xlink:href="#xl" x="205" y="16" />
    <use xlink:href="#Gammax" x="-6" y="-198" />
    <g id="xlabels" transform="translate(0,25)">
      <use xlink:href="#xm4" x="-160" y="0" />
      <use xlink:href="#xm3" x="-120" y="0" />
      <use xlink:href="#xm2" x="-80" y="0" />
      <use xlink:href="#xm1" x="-40" y="0" />
      <use xlink:href="#x1" x="40" y="0" />
      <use xlink:href="#x2" x="80" y="0" />
      <use xlink:href="#x3" x="120" y="0" />
      <use xlink:href="#x4" x="160" y="0" />
    </g>
    <g id="ylabels" transform="translate(-8,7)">
      <use xlink:href="#ym4" x="0" y="160" />
      <use xlink:href="#ym3" x="0" y="120" />
      <use xlink:href="#ym2" x="0" y="80" />
      <use xlink:href="#ym1" x="0" y="40" />
      <use xlink:href="#y1" x="0" y="-40" />
      <use xlink:href="#y2" x="0" y="-80" />
      <use xlink:href="#y3" x="0" y="-120" />
      <use xlink:href="#y4" x="0" y="-160" />
    </g>

    <!-- curve -->
    <path id="gamma-curve" transform="scale(40, -40)"
       fill="none" stroke="red" stroke-width="0.1px"
       stroke-linecap="butt" stroke-linejoin="round"
       d="M -3.990608,4.5
          C -3.990213,4.313724 -3.989813,4.148193 -3.989414,4
          C -3.988307833,3.588791814 -3.987089546,3.265201424 -3.985806628,3
          C -3.983543489,2.532170353 -3.980956692,2.223609881 -3.978464542,2
          C -3.976160663,1.79328291 -3.973618012,1.631738487 -3.97094191,1.5
          C -3.966129075,1.263074891 -3.960590509,1.109764562 -3.955294285,1
          C -3.948644359,0.8621798818 -3.941127659,0.7687939353 -3.933790084,0.7
          C -3.927258932,0.6387667399 -3.9201021,0.5900926069 -3.912556118,0.55
          C -3.904715001,0.508339308 -3.896449246,0.4759760213 -3.888322224,0.45
          C -3.874375372,0.4054223243 -3.858960153,0.3737995654 -3.843488453,0.35
          C -3.82952724,0.3285239614 -3.814843485,0.312435075 -3.800427628,0.3
          C -3.778865423,0.2814005079 -3.755092755,0.2685936124 -3.730223592,0.26
          C -3.701059619,0.2499223035 -3.668797815,0.2451275398 -3.635293366,0.2451275398
          C -3.60126127,0.2451275398 -3.565559849,0.2500874762 -3.53067249,0.26
          C -3.500352777,0.2686147214 -3.468760863,0.2814984048 -3.437842597,0.3
          C -3.41614273,0.3129852743 -3.393831316,0.3292960868 -3.371874184,0.35
          C -3.346963827,0.3734885808 -3.319600309,0.4053323757 -3.292962805,0.45
          C -3.277023775,0.4767276791 -3.260542,0.5093642898 -3.244400817,0.55
          C -3.229017201,0.5887285227 -3.212884816,0.6373474695 -3.197223391,0.7
          C -3.184374423,0.7514014766 -3.170846844,0.8161640507 -3.157748138,0.9
          C -3.146382647,0.9727428151 -3.133902803,1.068872605 -3.121881426,1.2
          C -3.114572669,1.279722843 -3.106952947,1.377512961 -3.099530535,1.5
          C -3.092189575,1.621142899 -3.084123087,1.781322628 -3.076378466,2
          C -3.068585934,2.220030179 -3.059986907,2.529661894 -3.052241144,3
          C -3.048271309,3.241056243 -3.043905303,3.560933286 -3.039732432,4
          C -3.038325076,4.148081162 -3.036901342,4.313665639 -3.0354894,4.5



          M -2.961015,-4.5
          C -2.959301,-4.312744 -2.957560,-4.147325 -2.955827,-4
          C -2.950914,-3.582458 -2.945472,-3.260286 -2.939749,-3
          C -2.935347,-2.799834 -2.930778,-2.636392 -2.926263,-2.5
          C -2.919333,-2.290678 -2.911996,-2.129143 -2.904788,-2
          C -2.892306,-1.776340 -2.878429,-1.618705 -2.864586,-1.5
          C -2.849624,-1.371701 -2.833061,-1.275286 -2.815640,-1.2
          C -2.794886,-1.110311 -2.771865,-1.046294 -2.747683,-1
          C -2.728324,-0.962941 -2.708231,-0.937313 -2.688386,-0.92
          C -2.663008,-0.897859 -2.636659,-0.888136 -2.610721,-0.888136
          C -2.562320,-0.888136 -2.508449,-0.922061 -2.457025,-1
          C -2.427081,-1.045382 -2.395577,-1.109253 -2.365030,-1.2
          C -2.341146,-1.270955 -2.314987,-1.366713 -2.289431,-1.5
          C -2.267151,-1.616196 -2.242640,-1.774568 -2.219262,-2
          C -2.205725,-2.130538 -2.191569,-2.292970 -2.177806,-2.5
          C -2.168651,-2.637726 -2.159230,-2.801714 -2.149982,-3
          C -2.138766,-3.240482 -2.126438,-3.560146 -2.114628,-4
          C -2.110648,-4.148207 -2.106624,-4.313805 -2.102633,-4.5

          M -1.871935,4.5
          C -1.865394,4.308320 -1.858718,4.143441 -1.852082,4
          C -1.842947,3.802529 -1.833552,3.638496 -1.824237,3.5
          C -1.810232,3.291748 -1.795613,3.129566 -1.781188,3
          C -1.761545,2.823562 -1.740868,2.695332 -1.720517,2.6
          C -1.701398,2.510446 -1.681662,2.445769 -1.662090,2.4
          C -1.633332,2.332751 -1.603232,2.302407 -1.573498,2.302407
          C -1.542892,2.302407 -1.511375,2.334565 -1.480583,2.4
          C -1.458576,2.446767 -1.436169,2.512157 -1.414078,2.6
          C -1.389724,2.696840 -1.364467,2.826035 -1.339802,3
          C -1.321229,3.131002 -1.302058,3.293894 -1.283279,3.5
          C -1.270541,3.639809 -1.257545,3.804259 -1.244725,4
          C -1.235255,4.144595 -1.225650,4.309750 -1.216142,4.5

          M -0.722989,-4.5
          C -0.703644,-4.289121 -0.683635,-4.126568 -0.663823,-4
          C -0.637939,-3.834643 -0.611007,-3.721982 -0.584362,-3.65
          C -0.558153,-3.579196 -0.531050,-3.544644 -0.504083,-3.544644
          C -0.477363,-3.544644 -0.450106,-3.578581 -0.423417,-3.65
          C -0.396990,-3.720718 -0.369575,-3.832289 -0.342852,-4
          C -0.323034,-4.124377 -0.302528,-4.286263 -0.282477,-4.5

          M 0.203815,4.5
          C 0.211755,4.314521 0.219799,4.148898 0.227815,4
          C 0.249788,3.591842 0.273830,3.267297 0.299198,3
          C 0.327239,2.704524 0.356948,2.478923 0.386134,2.3
          C 0.420445,2.089649 0.456631,1.928284 0.492223,1.8
          C 0.525933,1.678498 0.560823,1.580632 0.595332,1.5
          C 0.639909,1.395843 0.686306,1.314797 0.732088,1.25
          C 0.775234,1.188934 0.819528,1.139946 0.863413,1.1
          C 0.908435,1.059019 0.954397,1.026322 1,1
          C 1.063471,0.963363 1.128726,0.937660 1.193208,0.92
          C 1.281194,0.895903 1.372114,0.885603 1.461632,0.885603
          C 1.557936,0.885603 1.656586,0.897520 1.754094,0.92
          C 1.835588,0.938788 1.918059,0.965356 2,1
          C 2.134623,1.056917 2.273219,1.137865 2.409589,1.25
          C 2.520031,1.340815 2.632494,1.454887 2.743626,1.6
          C 2.828719,1.711113 2.914698,1.842569 3,2
          C 3.076666,2.141492 3.153977,2.306144 3.230749,2.5
          C 3.289036,2.647179 3.347586,2.812633 3.405870,3
          C 3.491531,3.275377 3.578194,3.603103 3.664033,4
          C 3.697543,4.154944 3.731091,4.321174 3.764570,4.5" />
  </g>
</svg>


