<?xml version="1.0" encoding="UTF-8" standalone="no"?>
<!DOCTYPE svg PUBLIC "-//W3C//DTD SVG 1.1//EN" "http://www.w3.org/Graphics/SVG/1.1/DTD/svg11.dtd">
<!-- 由 Microsoft Visio, SVG Export 生成 区间测度.svg Page-1 -->
<svg xmlns="http://www.w3.org/2000/svg" xmlns:xlink="http://www.w3.org/1999/xlink" xmlns:ev="http://www.w3.org/2001/xml-events"
		xmlns:v="http://schemas.microsoft.com/visio/2003/SVGExtensions/" width="11.6929in" height="8.26772in"
		viewBox="0 0 841.89 595.276" xml:space="preserve" color-interpolation-filters="sRGB" class="st21">
	<v:documentProperties v:langID="2052" v:metric="true" v:viewMarkup="false">
		<v:userDefs>
			<v:ud v:nameU="msvSubprocessMaster" v:prompt="" v:val="VT4(Rectangle)"/>
			<v:ud v:nameU="msvNoAutoConnect" v:val="VT0(1):26"/>
		</v:userDefs>
	</v:documentProperties>

	<style type="text/css">
	<![CDATA[
		.st1 {fill:#41719c}
		.st2 {stroke:#41719c;stroke-linecap:round;stroke-linejoin:round;stroke-width:2.5}
		.st3 {fill:none;stroke:none;stroke-width:2.5}
		.st4 {fill:#5b9bd5;font-family:Century;font-size:3em}
		.st5 {marker-end:url(#mrkr20-17);marker-start:url(#mrkr20-15);stroke:#5b9bd5;stroke-linecap:round;stroke-linejoin:round;stroke-width:2.5}
		.st6 {fill:#5b9bd5;fill-opacity:1;stroke:#5b9bd5;stroke-opacity:1;stroke-width:0.49800796812749}
		.st7 {fill:#5b9bd5;font-family:Century;font-size:2.50001em}
		.st8 {font-size:0.400002em}
		.st9 {visibility:visible}
		.st10 {fill:#5b9bd5;fill-opacity:0.22;filter:url(#filter_2);stroke:#5b9bd5;stroke-opacity:0.22}
		.st11 {fill:#5b9bd5;stroke:#000000;stroke-width:0.25}
		.st12 {fill:#feffff;font-family:Century;font-size:4.00001em}
		.st13 {fill:#5b9bd5;fill-opacity:0.22;filter:url(#filter_2);stroke:none}
		.st14 {fill:#92d050;fill-opacity:0.49;stroke:none;stroke-width:0.25}
		.st15 {font-size:0.374999em}
		.st16 {marker-start:url(#mrkr11-133);stroke:#000000;stroke-dasharray:0,7.5;stroke-linecap:round;stroke-linejoin:round;stroke-width:2.5}
		.st17 {fill:#000000;fill-opacity:1;stroke:#000000;stroke-opacity:1;stroke-width:0.63451776649746}
		.st18 {fill:none;stroke:none;stroke-width:0.25}
		.st19 {fill:#5b9bd5;font-family:黑体;font-size:2.50001em}
		.st20 {font-size:1em}
		.st21 {fill:none;fill-rule:evenodd;font-size:12px;overflow:visible;stroke-linecap:square;stroke-miterlimit:3}
	]]>
	</style>

	<defs id="Markers">
		<g id="lend20">
			<path
					d="M 0 0.75 C -0.414214 0.75 -0.75 0.414214 -0.75 0 -0.75 -0.414214 -0.414214 -0.75 0 -0.75 0.414214 -0.75 0.75 -0.414214 0.75 0 0.75 0.414214 0.414214 0.75 0 0.75 Z "
					style="stroke-linecap:round;stroke-linejoin:round;fill:none"/>
		</g>
		<marker id="mrkr20-15" class="st6" v:arrowType="20" v:arrowSize="2" v:setback="1.362" refX="1.362" orient="auto"
				markerUnits="strokeWidth" overflow="visible">
			<use xlink:href="#lend20" transform="scale(2.008) "/>
		</marker>
		<marker id="mrkr20-17" class="st6" v:arrowType="20" v:arrowSize="2" v:setback="1.506" refX="-1.506" orient="auto"
				markerUnits="strokeWidth" overflow="visible">
			<use xlink:href="#lend20" transform="scale(-2.008,-2.008) "/>
		</marker>
		<g id="lend11">
			<path d="M 0.75 -0.75 L 0.75 0.75 L -0.75 0.75 L -0.75 -0.75 L 0.75 -0.75 " style="stroke:none"/>
		</g>
		<marker id="mrkr11-133" class="st17" v:arrowType="11" v:arrowSize="0" v:setback="1.038" refX="1.038" orient="auto"
				markerUnits="strokeWidth" overflow="visible">
			<use xlink:href="#lend11" transform="scale(1.576) "/>
		</marker>
	</defs>
	<defs id="Filters">
		<filter id="filter_2">
			<feGaussianBlur stdDeviation="2"/>
		</filter>
	</defs>
	<g v:mID="0" v:index="1" v:groupContext="foregroundPage">
		<v:userDefs>
			<v:ud v:nameU="msvThemeOrder" v:val="VT0(0):26"/>
		</v:userDefs>
		<title>页-1</title>
		<v:pageProperties v:drawingScale="0.0393701" v:pageScale="0.0393701" v:drawingUnits="24" v:shadowOffsetX="8.50394"
				v:shadowOffsetY="-8.50394"/>
		<g id="shape1-1" v:mID="1" v:groupContext="shape" transform="translate(135.818,-494.083)">
			<title>点式线</title>
			<v:userDefs>
				<v:ud v:nameU="ControlX" v:val="VT0(0.059055118110236):24"/>
				<v:ud v:nameU="Scale" v:val="VT0(1):26"/>
				<v:ud v:nameU="AntiScale" v:val="VT0(1):26"/>
				<v:ud v:nameU="visVersion" v:val="VT0(15):26"/>
			</v:userDefs>
			<path d="M-4.25 595.28 A4.25197 4.25197 -180 1 0 4.25 595.28 A4.25197 4.25197 -180 0 0 -4.25 595.28 ZM579.27 595.28 A4.25197
						 4.25197 -180 1 0 570.77 595.28 A4.25197 4.25197 -180 0 0 579.27 595.28 Z" class="st1"/>
			<path d="M-4.25 595.28 A4.25197 4.25197 -180 1 0 4.25 595.28 A4.25197 4.25197 -180 0 0 -4.25 595.28" class="st2"/>
			<path d="M579.27 595.28 A4.25197 4.25197 -180 1 0 570.77 595.28 A4.25197 4.25197 -180 0 0 579.27 595.28" class="st2"/>
			<path d="M4.25 595.28 L570.77 595.28" class="st2"/>
		</g>
		<g id="shape2-6" v:mID="2" v:groupContext="shape" transform="translate(343.797,-510.236)">
			<title>工作表.2</title>
			<desc>I</desc>
			<v:textBlock v:margins="rect(4,4,4,4)" v:tabSpace="42.5197"/>
			<v:textRect cx="88.8273" cy="589.75" width="177.66" height="11.0521"/>
			<rect x="0" y="584.224" width="177.655" height="11.0521" class="st3"/>
			<text x="81.5" y="600.55" class="st4" v:langID="2052"><v:paragraph v:horizAlign="1"/><v:tabList/>I</text>		</g>
		<g id="shape4-9" v:mID="4" v:groupContext="shape" transform="translate(85.0394,-481.331)">
			<title>工作表.4</title>
			<path d="M3.4 595.28 L3.76 595.28 L120.37 595.28" class="st5"/>
		</g>
		<g id="shape5-18" v:mID="5" v:groupContext="shape" transform="translate(169.177,-474.803)">
			<title>工作表.5</title>
			<path d="M3.4 595.28 L3.77 595.28 L197.61 595.28" class="st5"/>
		</g>
		<g id="shape6-25" v:mID="6" v:groupContext="shape" transform="translate(262.97,-481.331)">
			<title>工作表.6</title>
			<path d="M3.4 595.28 L3.76 595.28 L219.68 595.28" class="st5"/>
		</g>
		<g id="shape7-32" v:mID="7" v:groupContext="shape" transform="translate(451.935,-474.803)">
			<title>工作表.7</title>
			<path d="M3.4 595.28 L3.76 595.28 L120.37 595.28" class="st5"/>
		</g>
		<g id="shape8-39" v:mID="8" v:groupContext="shape" transform="translate(529.866,-481.331)">
			<title>工作表.8</title>
			<path d="M3.4 595.28 L3.76 595.28 L216.23 595.28" class="st5"/>
		</g>
		<g id="shape11-46" v:mID="11" v:groupContext="shape" transform="translate(126.321,-448.017)">
			<title>工作表.11</title>
			<desc>I1</desc>
			<v:textBlock v:margins="rect(4,4,4,4)" v:tabSpace="42.5197"/>
			<v:textRect cx="28.9654" cy="589.75" width="57.94" height="11.0521"/>
			<rect x="0" y="584.224" width="57.9309" height="11.0521" class="st3"/>
			<text x="19.52" y="598.75" class="st7" v:langID="2052"><v:paragraph v:horizAlign="1"/><v:tabList/>I<tspan class="st8">1</tspan></text>		</g>
		<g id="shape12-50" v:mID="12" v:groupContext="shape" transform="translate(239.522,-447.313)">
			<title>工作表.12</title>
			<desc>I2</desc>
			<v:textBlock v:margins="rect(4,4,4,4)" v:tabSpace="42.5197"/>
			<v:textRect cx="28.9654" cy="589.75" width="57.94" height="11.0521"/>
			<rect x="0" y="584.224" width="57.9309" height="11.0521" class="st3"/>
			<text x="19.52" y="598.75" class="st7" v:langID="2052"><v:paragraph v:horizAlign="1"/><v:tabList/>I<tspan class="st8">2</tspan></text>		</g>
		<g id="shape13-54" v:mID="13" v:groupContext="shape" transform="translate(345.728,-447.313)">
			<title>工作表.13</title>
			<desc>I3</desc>
			<v:textBlock v:margins="rect(4,4,4,4)" v:tabSpace="42.5197"/>
			<v:textRect cx="28.9654" cy="589.75" width="57.94" height="11.0521"/>
			<rect x="0" y="584.224" width="57.9309" height="11.0521" class="st3"/>
			<text x="19.52" y="598.75" class="st7" v:langID="2052"><v:paragraph v:horizAlign="1"/><v:tabList/>I<tspan class="st8">3</tspan></text>		</g>
		<g id="shape14-58" v:mID="14" v:groupContext="shape" transform="translate(480.9,-447.313)">
			<title>工作表.14</title>
			<desc>I4</desc>
			<v:textBlock v:margins="rect(4,4,4,4)" v:tabSpace="42.5197"/>
			<v:textRect cx="28.9654" cy="589.75" width="57.94" height="11.0521"/>
			<rect x="0" y="584.224" width="57.9309" height="11.0521" class="st3"/>
			<text x="19.52" y="598.75" class="st7" v:langID="2052"><v:paragraph v:horizAlign="1"/><v:tabList/>I<tspan class="st8">4</tspan></text>		</g>
		<g id="shape15-62" v:mID="15" v:groupContext="shape" transform="translate(606.417,-447.313)">
			<title>工作表.15</title>
			<desc>I5</desc>
			<v:textBlock v:margins="rect(4,4,4,4)" v:tabSpace="42.5197"/>
			<v:textRect cx="28.9654" cy="589.75" width="57.94" height="11.0521"/>
			<rect x="0" y="584.224" width="57.9309" height="11.0521" class="st3"/>
			<text x="19.52" y="598.75" class="st7" v:langID="2052"><v:paragraph v:horizAlign="1"/><v:tabList/>I<tspan class="st8">5</tspan></text>		</g>
		<g id="shape18-66" v:mID="18" v:groupContext="shape" transform="translate(127.742,-71.872)">
			<title>矩形</title>
			<desc>I</desc>
			<v:userDefs>
				<v:ud v:nameU="visVersion" v:val="VT0(15):26"/>
			</v:userDefs>
			<v:textBlock v:margins="rect(4,4,4,4)" v:tabSpace="42.5197"/>
			<v:textRect cx="206.289" cy="440.559" width="412.58" height="309.434"/>
			<g id="shadow18-67" v:groupContext="shadow" v:shadowOffsetX="0.345598" v:shadowOffsetY="-1.97279" v:shadowType="1"
					transform="matrix(1,0,0,1,0.345598,1.97279)" class="st9">
				<rect x="0" y="285.842" width="412.578" height="309.434" class="st10"/>
			</g>
			<rect x="0" y="285.842" width="412.578" height="309.434" class="st11"/>
			<text x="196.52" y="454.96" class="st12" v:langID="2052"><v:paragraph v:horizAlign="1"/><v:tabList/>I</text>		</g>
		<g id="shape19-72" v:mID="19" v:groupContext="shape" transform="translate(107.552,-149.23)">
			<title>矩形.19</title>
			<desc>I4</desc>
			<v:userDefs>
				<v:ud v:nameU="visVersion" v:val="VT0(15):26"/>
			</v:userDefs>
			<v:textBlock v:margins="rect(4,4,4,4)" v:tabSpace="42.5197"/>
			<v:textRect cx="84.7102" cy="517.917" width="169.43" height="154.717"/>
			<g id="shadow19-73" v:groupContext="shadow" v:shadowOffsetX="0.345598" v:shadowOffsetY="-1.97279" v:shadowType="1"
					transform="matrix(1,0,0,1,0.345598,1.97279)" class="st9">
				<rect x="0" y="440.559" width="169.42" height="154.717" class="st13"/>
			</g>
			<rect x="0" y="440.559" width="169.42" height="154.717" class="st14"/>
			<text x="69.93" y="532.32" class="st12" v:langID="2052"><v:paragraph v:horizAlign="1"/><v:tabList/>I<tspan class="st15">4</tspan></text>		</g>
		<g id="shape20-79" v:mID="20" v:groupContext="shape" transform="translate(99.2126,-270.48)">
			<title>矩形.20</title>
			<desc>I1</desc>
			<v:userDefs>
				<v:ud v:nameU="visVersion" v:val="VT0(15):26"/>
			</v:userDefs>
			<v:textBlock v:margins="rect(4,4,4,4)" v:tabSpace="42.5197"/>
			<v:textRect cx="103.145" cy="517.917" width="206.29" height="154.717"/>
			<g id="shadow20-80" v:groupContext="shadow" v:shadowOffsetX="0.345598" v:shadowOffsetY="-1.97279" v:shadowType="1"
					transform="matrix(1,0,0,1,0.345598,1.97279)" class="st9">
				<rect x="0" y="440.559" width="206.289" height="154.717" class="st13"/>
			</g>
			<rect x="0" y="440.559" width="206.289" height="154.717" class="st14"/>
			<text x="88.37" y="532.32" class="st12" v:langID="2052"><v:paragraph v:horizAlign="1"/><v:tabList/>I<tspan class="st15">1</tspan></text>		</g>
		<g id="shape21-86" v:mID="21" v:groupContext="shape" transform="translate(186.995,-328.636)">
			<title>矩形.21</title>
			<desc>I2</desc>
			<v:userDefs>
				<v:ud v:nameU="visVersion" v:val="VT0(15):26"/>
			</v:userDefs>
			<v:textBlock v:margins="rect(4,4,4,4)" v:tabSpace="42.5197"/>
			<v:textRect cx="103.145" cy="564.552" width="206.29" height="61.4478"/>
			<g id="shadow21-87" v:groupContext="shadow" v:shadowOffsetX="0.345598" v:shadowOffsetY="-1.97279" v:shadowType="1"
					transform="matrix(1,0,0,1,0.345598,1.97279)" class="st9">
				<rect x="0" y="533.828" width="206.289" height="61.4478" class="st13"/>
			</g>
			<rect x="0" y="533.828" width="206.289" height="61.4478" class="st14"/>
			<text x="88.37" y="578.95" class="st12" v:langID="2052"><v:paragraph v:horizAlign="1"/><v:tabList/>I<tspan class="st15">2</tspan></text>		</g>
		<g id="shape22-93" v:mID="22" v:groupContext="shape" transform="translate(377.922,-303.581)">
			<title>矩形.22</title>
			<desc>I3</desc>
			<v:userDefs>
				<v:ud v:nameU="visVersion" v:val="VT0(15):26"/>
			</v:userDefs>
			<v:textBlock v:margins="rect(4,4,4,4)" v:tabSpace="42.5197"/>
			<v:textRect cx="92.1717" cy="546.576" width="184.35" height="97.3994"/>
			<g id="shadow22-94" v:groupContext="shadow" v:shadowOffsetX="0.345598" v:shadowOffsetY="-1.97279" v:shadowType="1"
					transform="matrix(1,0,0,1,0.345598,1.97279)" class="st9">
				<rect x="0" y="497.876" width="184.343" height="97.3994" class="st13"/>
			</g>
			<rect x="0" y="497.876" width="184.343" height="97.3994" class="st14"/>
			<text x="77.39" y="560.98" class="st12" v:langID="2052"><v:paragraph v:horizAlign="1"/><v:tabList/>I<tspan class="st15">3</tspan></text>		</g>
		<g id="shape23-100" v:mID="23" v:groupContext="shape" transform="translate(179.314,-38.9535)">
			<title>矩形.23</title>
			<desc>I7</desc>
			<v:userDefs>
				<v:ud v:nameU="visVersion" v:val="VT0(15):26"/>
			</v:userDefs>
			<v:textBlock v:margins="rect(4,4,4,4)" v:tabSpace="42.5197"/>
			<v:textRect cx="128.382" cy="517.917" width="256.77" height="154.717"/>
			<g id="shadow23-101" v:groupContext="shadow" v:shadowOffsetX="0.345598" v:shadowOffsetY="-1.97279" v:shadowType="1"
					transform="matrix(1,0,0,1,0.345598,1.97279)" class="st9">
				<rect x="0" y="440.559" width="256.764" height="154.717" class="st13"/>
			</g>
			<rect x="0" y="440.559" width="256.764" height="154.717" class="st14"/>
			<text x="113.6" y="532.32" class="st12" v:langID="2052"><v:paragraph v:horizAlign="1"/><v:tabList/>I<tspan class="st15">7</tspan></text>		</g>
		<g id="shape24-107" v:mID="24" v:groupContext="shape" transform="translate(272.583,-182.697)">
			<title>矩形.24</title>
			<desc>I5</desc>
			<v:userDefs>
				<v:ud v:nameU="visVersion" v:val="VT0(15):26"/>
			</v:userDefs>
			<v:textBlock v:margins="rect(4,4,4,4)" v:tabSpace="42.5197"/>
			<v:textRect cx="138.258" cy="517.917" width="276.52" height="154.717"/>
			<g id="shadow24-108" v:groupContext="shadow" v:shadowOffsetX="0.345598" v:shadowOffsetY="-1.97279" v:shadowType="1"
					transform="matrix(1,0,0,1,0.345598,1.97279)" class="st9">
				<rect x="0" y="440.559" width="276.515" height="154.717" class="st13"/>
			</g>
			<rect x="0" y="440.559" width="276.515" height="154.717" class="st14"/>
			<text x="123.48" y="532.32" class="st12" v:langID="2052"><v:paragraph v:horizAlign="1"/><v:tabList/>I<tspan
						class="st15">5</tspan></text>		</g>
		<g id="shape29-114" v:mID="29" v:groupContext="shape" transform="translate(101.773,-64.4497)">
			<title>矩形.29</title>
			<desc>I6</desc>
			<v:userDefs>
				<v:ud v:nameU="visVersion" v:val="VT0(15):26"/>
			</v:userDefs>
			<v:textBlock v:margins="rect(4,4,4,4)" v:tabSpace="42.5197"/>
			<v:textRect cx="43.8913" cy="546.576" width="87.79" height="97.3994"/>
			<g id="shadow29-115" v:groupContext="shadow" v:shadowOffsetX="0.345598" v:shadowOffsetY="-1.97279" v:shadowType="1"
					transform="matrix(1,0,0,1,0.345598,1.97279)" class="st9">
				<rect x="0" y="497.876" width="87.7826" height="97.3994" class="st13"/>
			</g>
			<rect x="0" y="497.876" width="87.7826" height="97.3994" class="st14"/>
			<text x="29.11" y="560.98" class="st12" v:langID="2052"><v:paragraph v:horizAlign="1"/><v:tabList/>I<tspan class="st15">6</tspan></text>		</g>
		<g id="shape30-121" v:mID="30" v:groupContext="shape" transform="translate(369.144,-66.1269)">
			<title>矩形.30</title>
			<desc>I8</desc>
			<v:userDefs>
				<v:ud v:nameU="visVersion" v:val="VT0(15):26"/>
			</v:userDefs>
			<v:textBlock v:margins="rect(4,4,4,4)" v:tabSpace="42.5197"/>
			<v:textRect cx="103.145" cy="517.917" width="206.29" height="154.717"/>
			<g id="shadow30-122" v:groupContext="shadow" v:shadowOffsetX="0.345598" v:shadowOffsetY="-1.97279" v:shadowType="1"
					transform="matrix(1,0,0,1,0.345598,1.97279)" class="st9">
				<rect x="0" y="440.559" width="206.289" height="154.717" class="st13"/>
			</g>
			<rect x="0" y="440.559" width="206.289" height="154.717" class="st14"/>
			<text x="88.37" y="532.32" class="st12" v:langID="2052"><v:paragraph v:horizAlign="1"/><v:tabList/>I<tspan class="st15">8</tspan></text>		</g>
		<g id="shape41-128" v:mID="41" v:groupContext="shape" transform="translate(765.28,101.192) rotate(90)">
			<title>工作表.41</title>
			<path d="M2.59 595.28 L2.95 595.28 L17 595.28" class="st16"/>
		</g>
		<g id="shape47-134" v:mID="47" v:groupContext="shape" transform="translate(803.733,101.192) rotate(90)">
			<title>工作表.47</title>
			<path d="M2.59 595.28 L2.95 595.28 L17 595.28" class="st16"/>
		</g>
		<g id="shape48-139" v:mID="48" v:groupContext="shape" transform="translate(857.802,101.192) rotate(90)">
			<title>工作表.48</title>
			<path d="M2.59 595.28 L2.95 595.28 L17 595.28" class="st16"/>
		</g>
		<g id="shape49-144" v:mID="49" v:groupContext="shape" transform="translate(966.275,101.192) rotate(90)">
			<title>工作表.49</title>
			<path d="M2.59 595.28 L2.95 595.28 L17 595.28" class="st16"/>
		</g>
		<g id="shape50-149" v:mID="50" v:groupContext="shape" transform="translate(1047.21,101.192) rotate(90)">
			<title>工作表.50</title>
			<path d="M2.59 595.28 L2.95 595.28 L17 595.28" class="st16"/>
		</g>
		<g id="shape51-154" v:mID="51" v:groupContext="shape" transform="translate(1081.47,101.192) rotate(90)">
			<title>工作表.51</title>
			<path d="M2.59 595.28 L2.95 595.28 L17 595.28" class="st16"/>
		</g>
		<g id="shape52-159" v:mID="52" v:groupContext="shape" transform="translate(1124.45,101.192) rotate(90)">
			<title>工作表.52</title>
			<path d="M2.59 595.28 L2.95 595.28 L17 595.28" class="st16"/>
		</g>
		<g id="shape53-164" v:mID="53" v:groupContext="shape" transform="translate(1172.04,101.192) rotate(90)">
			<title>工作表.53</title>
			<path d="M2.59 595.28 L2.95 595.28 L17 595.28" class="st16"/>
		</g>
		<g id="shape55-169" v:mID="55" v:groupContext="shape" transform="translate(595.276,-189.8)">
			<title>工作表.55</title>
			<desc>一维与二维条件下的开覆盖与原区间关系</desc>
			<v:textBlock v:margins="rect(4,4,4,4)" v:tabSpace="42.5197"/>
			<v:textRect cx="49.6063" cy="489.685" width="99.22" height="211.181"/>
			<rect x="0" y="384.094" width="99.2126" height="211.181" class="st18"/>
			<text x="4.61" y="406.72" class="st19" v:langID="2052"><v:paragraph v:horizAlign="1"/><v:tabList/>一维与<tspan x="4.61"
						dy="1.2em" class="st20">二维条</tspan><tspan x="4.61" dy="1.2em" class="st20">件下的</tspan><tspan x="4.61"
						dy="1.2em" class="st20">开覆盖</tspan><tspan x="4.61" dy="1.2em" class="st20">与原区</tspan><tspan x="4.61"
						dy="1.298em" class="st20">间关系</tspan></text>		</g>
	</g>
</svg>
