<svg xmlns:xlink="http://www.w3.org/1999/xlink" width="98.388ex" height="21.176ex" style="font-size: 15px; vertical-align: -9.695ex; margin-bottom: -0.309ex;" viewBox="0 -4809.9 42361.4 9117.4" role="img" focusable="false" xmlns="http://www.w3.org/2000/svg">
<defs>
<path stroke-width="1" id="E1-MJMAIN-46" d="M128 619Q121 626 117 628T101 631T58 634H25V680H582V676Q584 670 596 560T610 444V440H570V444Q563 493 561 501Q555 538 543 563T516 601T477 622T431 631T374 633H334H286Q252 633 244 631T233 621Q232 619 232 490V363H284Q287 363 303 363T327 364T349 367T372 373T389 385Q407 403 410 459V480H450V200H410V221Q407 276 389 296Q381 303 371 307T348 313T327 316T303 317T284 317H232V189L233 61Q240 54 245 52T270 48T333 46H360V0H348Q324 3 182 3Q51 3 36 0H25V46H58Q100 47 109 49T128 61V619Z"></path>
<path stroke-width="1" id="E1-MJMAIN-69" d="M69 609Q69 637 87 653T131 669Q154 667 171 652T188 609Q188 579 171 564T129 549Q104 549 87 564T69 609ZM247 0Q232 3 143 3Q132 3 106 3T56 1L34 0H26V46H42Q70 46 91 49Q100 53 102 60T104 102V205V293Q104 345 102 359T88 378Q74 385 41 385H30V408Q30 431 32 431L42 432Q52 433 70 434T106 436Q123 437 142 438T171 441T182 442H185V62Q190 52 197 50T232 46H255V0H247Z"></path>
<path stroke-width="1" id="E1-MJMAIN-6E" d="M41 46H55Q94 46 102 60V68Q102 77 102 91T102 122T103 161T103 203Q103 234 103 269T102 328V351Q99 370 88 376T43 385H25V408Q25 431 27 431L37 432Q47 433 65 434T102 436Q119 437 138 438T167 441T178 442H181V402Q181 364 182 364T187 369T199 384T218 402T247 421T285 437Q305 442 336 442Q450 438 463 329Q464 322 464 190V104Q464 66 466 59T477 49Q498 46 526 46H542V0H534L510 1Q487 2 460 2T422 3Q319 3 310 0H302V46H318Q379 46 379 62Q380 64 380 200Q379 335 378 343Q372 371 358 385T334 402T308 404Q263 404 229 370Q202 343 195 315T187 232V168V108Q187 78 188 68T191 55T200 49Q221 46 249 46H265V0H257L234 1Q210 2 183 2T145 3Q42 3 33 0H25V46H41Z"></path>
<path stroke-width="1" id="E1-MJMAIN-74" d="M27 422Q80 426 109 478T141 600V615H181V431H316V385H181V241Q182 116 182 100T189 68Q203 29 238 29Q282 29 292 100Q293 108 293 146V181H333V146V134Q333 57 291 17Q264 -10 221 -10Q187 -10 162 2T124 33T105 68T98 100Q97 107 97 248V385H18V422H27Z"></path>
<path stroke-width="1" id="E1-MJMAIN-65" d="M28 218Q28 273 48 318T98 391T163 433T229 448Q282 448 320 430T378 380T406 316T415 245Q415 238 408 231H126V216Q126 68 226 36Q246 30 270 30Q312 30 342 62Q359 79 369 104L379 128Q382 131 395 131H398Q415 131 415 121Q415 117 412 108Q393 53 349 21T250 -11Q155 -11 92 58T28 218ZM333 275Q322 403 238 411H236Q228 411 220 410T195 402T166 381T143 340T127 274V267H333V275Z"></path>
<path stroke-width="1" id="E1-MJMAIN-64" d="M376 495Q376 511 376 535T377 568Q377 613 367 624T316 637H298V660Q298 683 300 683L310 684Q320 685 339 686T376 688Q393 689 413 690T443 693T454 694H457V390Q457 84 458 81Q461 61 472 55T517 46H535V0Q533 0 459 -5T380 -11H373V44L365 37Q307 -11 235 -11Q158 -11 96 50T34 215Q34 315 97 378T244 442Q319 442 376 393V495ZM373 342Q328 405 260 405Q211 405 173 369Q146 341 139 305T131 211Q131 155 138 120T173 59Q203 26 251 26Q322 26 373 103V342Z"></path>
<path stroke-width="1" id="E1-MJMAIN-66" d="M273 0Q255 3 146 3Q43 3 34 0H26V46H42Q70 46 91 49Q99 52 103 60Q104 62 104 224V385H33V431H104V497L105 564L107 574Q126 639 171 668T266 704Q267 704 275 704T289 705Q330 702 351 679T372 627Q372 604 358 590T321 576T284 590T270 627Q270 647 288 667H284Q280 668 273 668Q245 668 223 647T189 592Q183 572 182 497V431H293V385H185V225Q185 63 186 61T189 57T194 54T199 51T206 49T213 48T222 47T231 47T241 46T251 46H282V0H273Z"></path>
<path stroke-width="1" id="E1-MJMAIN-72" d="M36 46H50Q89 46 97 60V68Q97 77 97 91T98 122T98 161T98 203Q98 234 98 269T98 328L97 351Q94 370 83 376T38 385H20V408Q20 431 22 431L32 432Q42 433 60 434T96 436Q112 437 131 438T160 441T171 442H174V373Q213 441 271 441H277Q322 441 343 419T364 373Q364 352 351 337T313 322Q288 322 276 338T263 372Q263 381 265 388T270 400T273 405Q271 407 250 401Q234 393 226 386Q179 341 179 207V154Q179 141 179 127T179 101T180 81T180 66V61Q181 59 183 57T188 54T193 51T200 49T207 48T216 47T225 47T235 46T245 46H276V0H267Q249 3 140 3Q37 3 28 0H20V46H36Z"></path>
<path stroke-width="1" id="E1-MJMAIN-63" d="M370 305T349 305T313 320T297 358Q297 381 312 396Q317 401 317 402T307 404Q281 408 258 408Q209 408 178 376Q131 329 131 219Q131 137 162 90Q203 29 272 29Q313 29 338 55T374 117Q376 125 379 127T395 129H409Q415 123 415 120Q415 116 411 104T395 71T366 33T318 2T249 -11Q163 -11 99 53T34 214Q34 318 99 383T250 448T370 421T404 357Q404 334 387 320Z"></path>
<path stroke-width="1" id="E1-MJMAIN-31" d="M213 578L200 573Q186 568 160 563T102 556H83V602H102Q149 604 189 617T245 641T273 663Q275 666 285 666Q294 666 302 660V361L303 61Q310 54 315 52T339 48T401 46H427V0H416Q395 3 257 3Q121 3 100 0H88V46H114Q136 46 152 46T177 47T193 50T201 52T207 57T213 61V578Z"></path>
<path stroke-width="1" id="E1-MJMAIN-32" d="M109 429Q82 429 66 447T50 491Q50 562 103 614T235 666Q326 666 387 610T449 465Q449 422 429 383T381 315T301 241Q265 210 201 149L142 93L218 92Q375 92 385 97Q392 99 409 186V189H449V186Q448 183 436 95T421 3V0H50V19V31Q50 38 56 46T86 81Q115 113 136 137Q145 147 170 174T204 211T233 244T261 278T284 308T305 340T320 369T333 401T340 431T343 464Q343 527 309 573T212 619Q179 619 154 602T119 569T109 550Q109 549 114 549Q132 549 151 535T170 489Q170 464 154 447T109 429Z"></path>
<path stroke-width="1" id="E1-MJMAIN-28" d="M94 250Q94 319 104 381T127 488T164 576T202 643T244 695T277 729T302 750H315H319Q333 750 333 741Q333 738 316 720T275 667T226 581T184 443T167 250T184 58T225 -81T274 -167T316 -220T333 -241Q333 -250 318 -250H315H302L274 -226Q180 -141 137 -14T94 250Z"></path>
<path stroke-width="1" id="E1-MJMATHI-79" d="M21 287Q21 301 36 335T84 406T158 442Q199 442 224 419T250 355Q248 336 247 334Q247 331 231 288T198 191T182 105Q182 62 196 45T238 27Q261 27 281 38T312 61T339 94Q339 95 344 114T358 173T377 247Q415 397 419 404Q432 431 462 431Q475 431 483 424T494 412T496 403Q496 390 447 193T391 -23Q363 -106 294 -155T156 -205Q111 -205 77 -183T43 -117Q43 -95 50 -80T69 -58T89 -48T106 -45Q150 -45 150 -87Q150 -107 138 -122T115 -142T102 -147L99 -148Q101 -153 118 -160T152 -167H160Q177 -167 186 -165Q219 -156 247 -127T290 -65T313 -9T321 21L315 17Q309 13 296 6T270 -6Q250 -11 231 -11Q185 -11 150 11T104 82Q103 89 103 113Q103 170 138 262T173 379Q173 380 173 381Q173 390 173 393T169 400T158 404H154Q131 404 112 385T82 344T65 302T57 280Q55 278 41 278H27Q21 284 21 287Z"></path>
<path stroke-width="1" id="E1-MJMAIN-2212" d="M84 237T84 250T98 270H679Q694 262 694 250T679 230H98Q84 237 84 250Z"></path>
<path stroke-width="1" id="E1-MJMAIN-30" d="M96 585Q152 666 249 666Q297 666 345 640T423 548Q460 465 460 320Q460 165 417 83Q397 41 362 16T301 -15T250 -22Q224 -22 198 -16T137 16T82 83Q39 165 39 320Q39 494 96 585ZM321 597Q291 629 250 629Q208 629 178 597Q153 571 145 525T137 333Q137 175 145 125T181 46Q209 16 250 16Q290 16 318 46Q347 76 354 130T362 333Q362 478 354 524T321 597Z"></path>
<path stroke-width="1" id="E1-MJMATHI-78" d="M52 289Q59 331 106 386T222 442Q257 442 286 424T329 379Q371 442 430 442Q467 442 494 420T522 361Q522 332 508 314T481 292T458 288Q439 288 427 299T415 328Q415 374 465 391Q454 404 425 404Q412 404 406 402Q368 386 350 336Q290 115 290 78Q290 50 306 38T341 26Q378 26 414 59T463 140Q466 150 469 151T485 153H489Q504 153 504 145Q504 144 502 134Q486 77 440 33T333 -11Q263 -11 227 52Q186 -10 133 -10H127Q78 -10 57 16T35 71Q35 103 54 123T99 143Q142 143 142 101Q142 81 130 66T107 46T94 41L91 40Q91 39 97 36T113 29T132 26Q168 26 194 71Q203 87 217 139T245 247T261 313Q266 340 266 352Q266 380 251 392T217 404Q177 404 142 372T93 290Q91 281 88 280T72 278H58Q52 284 52 289Z"></path>
<path stroke-width="1" id="E1-MJMAIN-2B" d="M56 237T56 250T70 270H369V420L370 570Q380 583 389 583Q402 583 409 568V270H707Q722 262 722 250T707 230H409V-68Q401 -82 391 -82H389H387Q375 -82 369 -68V230H70Q56 237 56 250Z"></path>
<path stroke-width="1" id="E1-MJMAIN-29" d="M60 749L64 750Q69 750 74 750H86L114 726Q208 641 251 514T294 250Q294 182 284 119T261 12T224 -76T186 -143T145 -194T113 -227T90 -246Q87 -249 86 -250H74Q66 -250 63 -250T58 -247T55 -238Q56 -237 66 -225Q221 -64 221 250T66 725Q56 737 55 738Q55 746 60 749Z"></path>
<path stroke-width="1" id="E1-MJMAIN-43" d="M56 342Q56 428 89 500T174 615T283 681T391 705Q394 705 400 705T408 704Q499 704 569 636L582 624L612 663Q639 700 643 704Q644 704 647 704T653 705H657Q660 705 666 699V419L660 413H626Q620 419 619 430Q610 512 571 572T476 651Q457 658 426 658Q322 658 252 588Q173 509 173 342Q173 221 211 151Q232 111 263 84T328 45T384 29T428 24Q517 24 571 93T626 244Q626 251 632 257H660L666 251V236Q661 133 590 56T403 -21Q262 -21 159 83T56 342Z"></path>
<path stroke-width="1" id="E1-MJMAIN-61" d="M137 305T115 305T78 320T63 359Q63 394 97 421T218 448Q291 448 336 416T396 340Q401 326 401 309T402 194V124Q402 76 407 58T428 40Q443 40 448 56T453 109V145H493V106Q492 66 490 59Q481 29 455 12T400 -6T353 12T329 54V58L327 55Q325 52 322 49T314 40T302 29T287 17T269 6T247 -2T221 -8T190 -11Q130 -11 82 20T34 107Q34 128 41 147T68 188T116 225T194 253T304 268H318V290Q318 324 312 340Q290 411 215 411Q197 411 181 410T156 406T148 403Q170 388 170 359Q170 334 154 320ZM126 106Q126 75 150 51T209 26Q247 26 276 49T315 109Q317 116 318 175Q318 233 317 233Q309 233 296 232T251 223T193 203T147 166T126 106Z"></path>
<path stroke-width="1" id="E1-MJMAIN-6C" d="M42 46H56Q95 46 103 60V68Q103 77 103 91T103 124T104 167T104 217T104 272T104 329Q104 366 104 407T104 482T104 542T103 586T103 603Q100 622 89 628T44 637H26V660Q26 683 28 683L38 684Q48 685 67 686T104 688Q121 689 141 690T171 693T182 694H185V379Q185 62 186 60Q190 52 198 49Q219 46 247 46H263V0H255L232 1Q209 2 183 2T145 3T107 3T57 1L34 0H26V46H42Z"></path>
<path stroke-width="1" id="E1-MJMAIN-73" d="M295 316Q295 356 268 385T190 414Q154 414 128 401Q98 382 98 349Q97 344 98 336T114 312T157 287Q175 282 201 278T245 269T277 256Q294 248 310 236T342 195T359 133Q359 71 321 31T198 -10H190Q138 -10 94 26L86 19L77 10Q71 4 65 -1L54 -11H46H42Q39 -11 33 -5V74V132Q33 153 35 157T45 162H54Q66 162 70 158T75 146T82 119T101 77Q136 26 198 26Q295 26 295 104Q295 133 277 151Q257 175 194 187T111 210Q75 227 54 256T33 318Q33 357 50 384T93 424T143 442T187 447H198Q238 447 268 432L283 424L292 431Q302 440 314 448H322H326Q329 448 335 442V310L329 304H301Q295 310 295 316Z"></path>
<path stroke-width="1" id="E1-MJMAIN-70" d="M36 -148H50Q89 -148 97 -134V-126Q97 -119 97 -107T97 -77T98 -38T98 6T98 55T98 106Q98 140 98 177T98 243T98 296T97 335T97 351Q94 370 83 376T38 385H20V408Q20 431 22 431L32 432Q42 433 61 434T98 436Q115 437 135 438T165 441T176 442H179V416L180 390L188 397Q247 441 326 441Q407 441 464 377T522 216Q522 115 457 52T310 -11Q242 -11 190 33L182 40V-45V-101Q182 -128 184 -134T195 -145Q216 -148 244 -148H260V-194H252L228 -193Q205 -192 178 -192T140 -191Q37 -191 28 -194H20V-148H36ZM424 218Q424 292 390 347T305 402Q234 402 182 337V98Q222 26 294 26Q345 26 384 80T424 218Z"></path>
<path stroke-width="1" id="E1-MJMATHI-63" d="M34 159Q34 268 120 355T306 442Q362 442 394 418T427 355Q427 326 408 306T360 285Q341 285 330 295T319 325T330 359T352 380T366 386H367Q367 388 361 392T340 400T306 404Q276 404 249 390Q228 381 206 359Q162 315 142 235T121 119Q121 73 147 50Q169 26 205 26H209Q321 26 394 111Q403 121 406 121Q410 121 419 112T429 98T420 83T391 55T346 25T282 0T202 -11Q127 -11 81 37T34 159Z"></path>
<path stroke-width="1" id="E1-MJMAIN-6D" d="M41 46H55Q94 46 102 60V68Q102 77 102 91T102 122T103 161T103 203Q103 234 103 269T102 328V351Q99 370 88 376T43 385H25V408Q25 431 27 431L37 432Q47 433 65 434T102 436Q119 437 138 438T167 441T178 442H181V402Q181 364 182 364T187 369T199 384T218 402T247 421T285 437Q305 442 336 442Q351 442 364 440T387 434T406 426T421 417T432 406T441 395T448 384T452 374T455 366L457 361L460 365Q463 369 466 373T475 384T488 397T503 410T523 422T546 432T572 439T603 442Q729 442 740 329Q741 322 741 190V104Q741 66 743 59T754 49Q775 46 803 46H819V0H811L788 1Q764 2 737 2T699 3Q596 3 587 0H579V46H595Q656 46 656 62Q657 64 657 200Q656 335 655 343Q649 371 635 385T611 402T585 404Q540 404 506 370Q479 343 472 315T464 232V168V108Q464 78 465 68T468 55T477 49Q498 46 526 46H542V0H534L510 1Q487 2 460 2T422 3Q319 3 310 0H302V46H318Q379 46 379 62Q380 64 380 200Q379 335 378 343Q372 371 358 385T334 402T308 404Q263 404 229 370Q202 343 195 315T187 232V168V108Q187 78 188 68T191 55T200 49Q221 46 249 46H265V0H257L234 1Q210 2 183 2T145 3Q42 3 33 0H25V46H41Z"></path>
<path stroke-width="1" id="E1-MJMAIN-75" d="M383 58Q327 -10 256 -10H249Q124 -10 105 89Q104 96 103 226Q102 335 102 348T96 369Q86 385 36 385H25V408Q25 431 27 431L38 432Q48 433 67 434T105 436Q122 437 142 438T172 441T184 442H187V261Q188 77 190 64Q193 49 204 40Q224 26 264 26Q290 26 311 35T343 58T363 90T375 120T379 144Q379 145 379 161T380 201T380 248V315Q380 361 370 372T320 385H302V431Q304 431 378 436T457 442H464V264Q464 84 465 81Q468 61 479 55T524 46H542V0Q540 0 467 -5T390 -11H383V58Z"></path>
<path stroke-width="1" id="E1-MJMAIN-2D" d="M11 179V252H277V179H11Z"></path>
<path stroke-width="1" id="E1-MJMAIN-52" d="M130 622Q123 629 119 631T103 634T60 637H27V683H202H236H300Q376 683 417 677T500 648Q595 600 609 517Q610 512 610 501Q610 468 594 439T556 392T511 361T472 343L456 338Q459 335 467 332Q497 316 516 298T545 254T559 211T568 155T578 94Q588 46 602 31T640 16H645Q660 16 674 32T692 87Q692 98 696 101T712 105T728 103T732 90Q732 59 716 27T672 -16Q656 -22 630 -22Q481 -16 458 90Q456 101 456 163T449 246Q430 304 373 320L363 322L297 323H231V192L232 61Q238 51 249 49T301 46H334V0H323Q302 3 181 3Q59 3 38 0H27V46H60Q102 47 111 49T130 61V622ZM491 499V509Q491 527 490 539T481 570T462 601T424 623T362 636Q360 636 340 636T304 637H283Q238 637 234 628Q231 624 231 492V360H289Q390 360 434 378T489 456Q491 467 491 499Z"></path>
<path stroke-width="1" id="E1-MJMAIN-6F" d="M28 214Q28 309 93 378T250 448Q340 448 405 380T471 215Q471 120 407 55T250 -10Q153 -10 91 57T28 214ZM250 30Q372 30 372 193V225V250Q372 272 371 288T364 326T348 362T317 390T268 410Q263 411 252 411Q222 411 195 399Q152 377 139 338T126 246V226Q126 130 145 91Q177 30 250 30Z"></path>
<path stroke-width="1" id="E1-MJMAIN-2013" d="M0 248V285H499V248H0Z"></path>
<path stroke-width="1" id="E1-MJMAIN-4B" d="M128 622Q121 629 117 631T101 634T58 637H25V683H36Q57 680 180 680Q315 680 324 683H335V637H313Q235 637 233 620Q232 618 232 462L233 307L379 449Q425 494 479 546Q518 584 524 591T531 607V608Q531 630 503 636Q501 636 498 636T493 637H489V683H499Q517 680 630 680Q704 680 716 683H722V637H708Q633 633 589 597Q584 592 495 506T406 419T515 254T631 80Q644 60 662 54T715 46H736V0H728Q719 3 615 3Q493 3 472 0H461V46H469Q515 46 515 72Q515 78 512 84L336 351Q332 348 278 296L232 251V156Q232 62 235 58Q243 47 302 46H335V0H324Q303 3 180 3Q45 3 36 0H25V46H58Q100 47 109 49T128 61V622Z"></path>
<path stroke-width="1" id="E1-MJMAIN-68" d="M41 46H55Q94 46 102 60V68Q102 77 102 91T102 124T102 167T103 217T103 272T103 329Q103 366 103 407T103 482T102 542T102 586T102 603Q99 622 88 628T43 637H25V660Q25 683 27 683L37 684Q47 685 66 686T103 688Q120 689 140 690T170 693T181 694H184V367Q244 442 328 442Q451 442 463 329Q464 322 464 190V104Q464 66 466 59T477 49Q498 46 526 46H542V0H534L510 1Q487 2 460 2T422 3Q319 3 310 0H302V46H318Q379 46 379 62Q380 64 380 200Q379 335 378 343Q372 371 358 385T334 402T308 404Q263 404 229 370Q202 343 195 315T187 232V168V108Q187 78 188 68T191 55T200 49Q221 46 249 46H265V0H257L234 1Q210 2 183 2T145 3Q42 3 33 0H25V46H41Z"></path>
<path stroke-width="1" id="E1-MJMAIN-6B" d="M36 46H50Q89 46 97 60V68Q97 77 97 91T97 124T98 167T98 217T98 272T98 329Q98 366 98 407T98 482T98 542T97 586T97 603Q94 622 83 628T38 637H20V660Q20 683 22 683L32 684Q42 685 61 686T98 688Q115 689 135 690T165 693T176 694H179V463L180 233L240 287Q300 341 304 347Q310 356 310 364Q310 383 289 385H284V431H293Q308 428 412 428Q475 428 484 431H489V385H476Q407 380 360 341Q286 278 286 274Q286 273 349 181T420 79Q434 60 451 53T500 46H511V0H505Q496 3 418 3Q322 3 307 0H299V46H306Q330 48 330 65Q330 72 326 79Q323 84 276 153T228 222L176 176V120V84Q176 65 178 59T189 49Q210 46 238 46H254V0H246Q231 3 137 3T28 0H20V46H36Z"></path>
<path stroke-width="1" id="E1-MJMAIN-42" d="M131 622Q124 629 120 631T104 634T61 637H28V683H229H267H346Q423 683 459 678T531 651Q574 627 599 590T624 512Q624 461 583 419T476 360L466 357Q539 348 595 302T651 187Q651 119 600 67T469 3Q456 1 242 0H28V46H61Q103 47 112 49T131 61V622ZM511 513Q511 560 485 594T416 636Q415 636 403 636T371 636T333 637Q266 637 251 636T232 628Q229 624 229 499V374H312L396 375L406 377Q410 378 417 380T442 393T474 417T499 456T511 513ZM537 188Q537 239 509 282T430 336L329 337H229V200V116Q229 57 234 52Q240 47 334 47H383Q425 47 443 53Q486 67 511 104T537 188Z"></path>
</defs>
<g stroke="currentColor" fill="currentColor" stroke-width="0" transform="matrix(1 0 0 -1 0 0)">
<g transform="translate(167,0)">
<g transform="translate(-11,0)">
<g transform="translate(0,3813)">
<text font-family="monospace" stroke="none" transform="scale(71.759) matrix(1 0 0 -1 0 0)">算</text>
<g transform="translate(1148,0)">
<text font-family="monospace" stroke="none" transform="scale(71.759) matrix(1 0 0 -1 0 0)">法</text>
</g>
</g>
<g transform="translate(0,1937)">
 <use xlink:href="#E1-MJMAIN-46"></use>
 <use xlink:href="#E1-MJMAIN-69" x="653" y="0"></use>
 <use xlink:href="#E1-MJMAIN-6E" x="932" y="0"></use>
 <use xlink:href="#E1-MJMAIN-69" x="1488" y="0"></use>
 <use xlink:href="#E1-MJMAIN-74" x="1767" y="0"></use>
 <use xlink:href="#E1-MJMAIN-65" x="2156" y="0"></use>
 <use xlink:href="#E1-MJMAIN-64" x="2851" y="0"></use>
 <use xlink:href="#E1-MJMAIN-69" x="3407" y="0"></use>
 <use xlink:href="#E1-MJMAIN-66" x="3686" y="0"></use>
 <use xlink:href="#E1-MJMAIN-66" x="3992" y="0"></use>
 <use xlink:href="#E1-MJMAIN-65" x="4299" y="0"></use>
 <use xlink:href="#E1-MJMAIN-72" x="4743" y="0"></use>
 <use xlink:href="#E1-MJMAIN-65" x="5136" y="0"></use>
 <use xlink:href="#E1-MJMAIN-6E" x="5580" y="0"></use>
 <use xlink:href="#E1-MJMAIN-63" x="6137" y="0"></use>
 <use xlink:href="#E1-MJMAIN-65" x="6581" y="0"></use>
</g>
<g transform="translate(0,-18)">
 <use xlink:href="#E1-MJMAIN-43"></use>
 <use xlink:href="#E1-MJMAIN-61" x="722" y="0"></use>
 <use xlink:href="#E1-MJMAIN-72" x="1223" y="0"></use>
 <use xlink:href="#E1-MJMAIN-64" x="1615" y="0"></use>
 <use xlink:href="#E1-MJMAIN-69" x="2172" y="0"></use>
 <use xlink:href="#E1-MJMAIN-6E" x="2450" y="0"></use>
 <use xlink:href="#E1-MJMAIN-61" x="3007" y="0"></use>
 <use xlink:href="#E1-MJMAIN-6C" x="3507" y="0"></use>
 <use xlink:href="#E1-MJMAIN-73" x="4036" y="0"></use>
 <use xlink:href="#E1-MJMAIN-70" x="4430" y="0"></use>
 <use xlink:href="#E1-MJMAIN-6C" x="4987" y="0"></use>
 <use xlink:href="#E1-MJMAIN-69" x="5265" y="0"></use>
 <use xlink:href="#E1-MJMAIN-6E" x="5544" y="0"></use>
 <use xlink:href="#E1-MJMAIN-65" x="6100" y="0"></use>
</g>
<g transform="translate(0,-1973)">
 <use xlink:href="#E1-MJMAIN-43"></use>
 <use xlink:href="#E1-MJMAIN-61" x="722" y="0"></use>
 <use xlink:href="#E1-MJMAIN-74" x="1223" y="0"></use>
 <use xlink:href="#E1-MJMAIN-6D" x="1612" y="0"></use>
 <use xlink:href="#E1-MJMAIN-75" x="2446" y="0"></use>
 <use xlink:href="#E1-MJMAIN-6C" x="3002" y="0"></use>
 <use xlink:href="#E1-MJMAIN-6C" x="3281" y="0"></use>
 <use xlink:href="#E1-MJMAIN-2013" x="3559" y="0"></use>
 <use xlink:href="#E1-MJMAIN-52" x="4060" y="0"></use>
 <use xlink:href="#E1-MJMAIN-6F" x="4796" y="0"></use>
 <use xlink:href="#E1-MJMAIN-6D" x="5297" y="0"></use>
 <use xlink:href="#E1-MJMAIN-73" x="6380" y="0"></use>
 <use xlink:href="#E1-MJMAIN-70" x="6775" y="0"></use>
 <use xlink:href="#E1-MJMAIN-6C" x="7331" y="0"></use>
 <use xlink:href="#E1-MJMAIN-69" x="7610" y="0"></use>
 <use xlink:href="#E1-MJMAIN-6E" x="7888" y="0"></use>
 <use xlink:href="#E1-MJMAIN-65" x="8445" y="0"></use>
</g>
<g transform="translate(0,-3744)">
 <use xlink:href="#E1-MJMAIN-4B"></use>
 <use xlink:href="#E1-MJMAIN-6F" x="778" y="0"></use>
 <use xlink:href="#E1-MJMAIN-63" x="1279" y="0"></use>
 <use xlink:href="#E1-MJMAIN-68" x="1723" y="0"></use>
 <use xlink:href="#E1-MJMAIN-61" x="2280" y="0"></use>
 <use xlink:href="#E1-MJMAIN-6E" x="2780" y="0"></use>
 <use xlink:href="#E1-MJMAIN-65" x="3337" y="0"></use>
 <use xlink:href="#E1-MJMAIN-6B" x="3781" y="0"></use>
 <use xlink:href="#E1-MJMAIN-2013" x="4310" y="0"></use>
 <use xlink:href="#E1-MJMAIN-42" x="4810" y="0"></use>
 <use xlink:href="#E1-MJMAIN-61" x="5519" y="0"></use>
 <use xlink:href="#E1-MJMAIN-72" x="6019" y="0"></use>
 <use xlink:href="#E1-MJMAIN-74" x="6412" y="0"></use>
 <use xlink:href="#E1-MJMAIN-65" x="6801" y="0"></use>
 <use xlink:href="#E1-MJMAIN-6C" x="7246" y="0"></use>
 <use xlink:href="#E1-MJMAIN-73" x="7524" y="0"></use>
 <use xlink:href="#E1-MJMAIN-73" x="8169" y="0"></use>
 <use xlink:href="#E1-MJMAIN-70" x="8563" y="0"></use>
 <use xlink:href="#E1-MJMAIN-6C" x="9120" y="0"></use>
 <use xlink:href="#E1-MJMAIN-69" x="9398" y="0"></use>
 <use xlink:href="#E1-MJMAIN-6E" x="9677" y="0"></use>
 <use xlink:href="#E1-MJMAIN-65" x="10233" y="0"></use>
</g>
</g>
<g transform="translate(11667,0)">
<g transform="translate(4592,3813)">
<text font-family="monospace" stroke="none" transform="scale(71.759) matrix(1 0 0 -1 0 0)">导</text>
<g transform="translate(1148,0)">
<text font-family="monospace" stroke="none" transform="scale(71.759) matrix(1 0 0 -1 0 0)">数</text>
</g>
</g>
<g transform="translate(2004,1937)">
<g transform="translate(120,0)">
<rect stroke="none" width="473" height="60" x="0" y="220"></rect>
 <use transform="scale(0.707)" xlink:href="#E1-MJMAIN-31" x="84" y="629"></use>
 <use transform="scale(0.707)" xlink:href="#E1-MJMAIN-32" x="84" y="-589"></use>
</g>
 <use xlink:href="#E1-MJMAIN-28" x="713" y="0"></use>
<g transform="translate(1103,0)">
<g transform="translate(120,0)">
<rect stroke="none" width="2196" height="60" x="0" y="220"></rect>
<g transform="translate(117,632)">
 <use transform="scale(0.707)" xlink:href="#E1-MJMATHI-79" x="0" y="0"></use>
 <use transform="scale(0.574)" xlink:href="#E1-MJMAIN-31" x="604" y="-304"></use>
 <use transform="scale(0.707)" xlink:href="#E1-MJMAIN-2212" x="996" y="0"></use>
<g transform="translate(1255,0)">
 <use transform="scale(0.707)" xlink:href="#E1-MJMATHI-79" x="0" y="0"></use>
 <use transform="scale(0.574)" xlink:href="#E1-MJMAIN-30" x="604" y="-304"></use>
</g>
</g>
<g transform="translate(60,-358)">
 <use transform="scale(0.707)" xlink:href="#E1-MJMATHI-78" x="0" y="0"></use>
 <use transform="scale(0.574)" xlink:href="#E1-MJMAIN-31" x="705" y="-243"></use>
 <use transform="scale(0.707)" xlink:href="#E1-MJMAIN-2212" x="1078" y="0"></use>
<g transform="translate(1313,0)">
 <use transform="scale(0.707)" xlink:href="#E1-MJMATHI-78" x="0" y="0"></use>
 <use transform="scale(0.574)" xlink:href="#E1-MJMAIN-30" x="705" y="-243"></use>
</g>
</g>
</g>
</g>
 <use xlink:href="#E1-MJMAIN-2B" x="3761" y="0"></use>
<g transform="translate(4540,0)">
<g transform="translate(342,0)">
<rect stroke="none" width="2080" height="60" x="0" y="220"></rect>
<g transform="translate(59,619)">
 <use transform="scale(0.707)" xlink:href="#E1-MJMATHI-79" x="0" y="0"></use>
 <use transform="scale(0.574)" xlink:href="#E1-MJMAIN-32" x="604" y="-304"></use>
 <use transform="scale(0.707)" xlink:href="#E1-MJMAIN-2212" x="996" y="0"></use>
<g transform="translate(1255,0)">
 <use transform="scale(0.707)" xlink:href="#E1-MJMATHI-79" x="0" y="0"></use>
 <use transform="scale(0.574)" xlink:href="#E1-MJMAIN-31" x="604" y="-304"></use>
</g>
</g>
<g transform="translate(197,-345)">
 <use transform="scale(0.707)" xlink:href="#E1-MJMATHI-78" x="0" y="0"></use>
 <use transform="scale(0.574)" xlink:href="#E1-MJMAIN-2212" x="705" y="-185"></use>
<g transform="translate(922,0)">
 <use transform="scale(0.707)" xlink:href="#E1-MJMATHI-78" x="0" y="0"></use>
 <use transform="scale(0.574)" xlink:href="#E1-MJMAIN-31" x="705" y="-243"></use>
</g>
</g>
</g>
</g>
 <use xlink:href="#E1-MJMAIN-29" x="7082" y="0"></use>
</g>
<g transform="translate(3054,-18)">
 <use xlink:href="#E1-MJMAIN-28" x="0" y="0"></use>
 <use xlink:href="#E1-MJMAIN-31" x="389" y="0"></use>
 <use xlink:href="#E1-MJMAIN-2212" x="1112" y="0"></use>
 <use xlink:href="#E1-MJMATHI-63" x="2112" y="0"></use>
 <use xlink:href="#E1-MJMAIN-29" x="2546" y="0"></use>
<g transform="translate(2935,0)">
<g transform="translate(120,0)">
<rect stroke="none" width="2196" height="60" x="0" y="220"></rect>
<g transform="translate(117,632)">
 <use transform="scale(0.707)" xlink:href="#E1-MJMATHI-79" x="0" y="0"></use>
 <use transform="scale(0.574)" xlink:href="#E1-MJMAIN-32" x="604" y="-304"></use>
 <use transform="scale(0.707)" xlink:href="#E1-MJMAIN-2212" x="996" y="0"></use>
<g transform="translate(1255,0)">
 <use transform="scale(0.707)" xlink:href="#E1-MJMATHI-79" x="0" y="0"></use>
 <use transform="scale(0.574)" xlink:href="#E1-MJMAIN-30" x="604" y="-304"></use>
</g>
</g>
<g transform="translate(60,-358)">
 <use transform="scale(0.707)" xlink:href="#E1-MJMATHI-78" x="0" y="0"></use>
 <use transform="scale(0.574)" xlink:href="#E1-MJMAIN-32" x="705" y="-243"></use>
 <use transform="scale(0.707)" xlink:href="#E1-MJMAIN-2212" x="1078" y="0"></use>
<g transform="translate(1313,0)">
 <use transform="scale(0.707)" xlink:href="#E1-MJMATHI-78" x="0" y="0"></use>
 <use transform="scale(0.574)" xlink:href="#E1-MJMAIN-30" x="705" y="-243"></use>
</g>
</g>
</g>
</g>
</g>
<g transform="translate(4522,-1973)">
<g transform="translate(120,0)">
<rect stroke="none" width="2196" height="60" x="0" y="220"></rect>
<g transform="translate(117,632)">
 <use transform="scale(0.707)" xlink:href="#E1-MJMATHI-79" x="0" y="0"></use>
 <use transform="scale(0.574)" xlink:href="#E1-MJMAIN-32" x="604" y="-304"></use>
 <use transform="scale(0.707)" xlink:href="#E1-MJMAIN-2212" x="996" y="0"></use>
<g transform="translate(1255,0)">
 <use transform="scale(0.707)" xlink:href="#E1-MJMATHI-79" x="0" y="0"></use>
 <use transform="scale(0.574)" xlink:href="#E1-MJMAIN-30" x="604" y="-304"></use>
</g>
</g>
<g transform="translate(60,-358)">
 <use transform="scale(0.707)" xlink:href="#E1-MJMATHI-78" x="0" y="0"></use>
 <use transform="scale(0.574)" xlink:href="#E1-MJMAIN-32" x="705" y="-243"></use>
 <use transform="scale(0.707)" xlink:href="#E1-MJMAIN-2212" x="1078" y="0"></use>
<g transform="translate(1313,0)">
 <use transform="scale(0.707)" xlink:href="#E1-MJMATHI-78" x="0" y="0"></use>
 <use transform="scale(0.574)" xlink:href="#E1-MJMAIN-30" x="705" y="-243"></use>
</g>
</g>
</g>
</g>
<g transform="translate(0,-3744)">
<text font-family="monospace" stroke="none" transform="scale(71.759) matrix(1 0 0 -1 0 0)">用</text>
<g transform="translate(1148,0)">
<text font-family="monospace" stroke="none" transform="scale(71.759) matrix(1 0 0 -1 0 0)">三</text>
</g>
<g transform="translate(2296,0)">
<text font-family="monospace" stroke="none" transform="scale(71.759) matrix(1 0 0 -1 0 0)">个</text>
</g>
<g transform="translate(3444,0)">
<text font-family="monospace" stroke="none" transform="scale(71.759) matrix(1 0 0 -1 0 0)">参</text>
</g>
<g transform="translate(4592,0)">
<text font-family="monospace" stroke="none" transform="scale(71.759) matrix(1 0 0 -1 0 0)">数</text>
</g>
<g transform="translate(5740,0)">
<text font-family="monospace" stroke="none" transform="scale(71.759) matrix(1 0 0 -1 0 0)">来</text>
</g>
<g transform="translate(6888,0)">
<text font-family="monospace" stroke="none" transform="scale(71.759) matrix(1 0 0 -1 0 0)">计</text>
</g>
<g transform="translate(8037,0)">
<text font-family="monospace" stroke="none" transform="scale(71.759) matrix(1 0 0 -1 0 0)">算</text>
</g>
<g transform="translate(9185,0)">
<text font-family="monospace" stroke="none" transform="scale(71.759) matrix(1 0 0 -1 0 0)">导</text>
</g>
<g transform="translate(10333,0)">
<text font-family="monospace" stroke="none" transform="scale(71.759) matrix(1 0 0 -1 0 0)">数</text>
</g>
</g>
</g>
<g transform="translate(24148,0)">
<g transform="translate(4346,1937)">
<text font-family="monospace" stroke="none" transform="scale(71.759) matrix(1 0 0 -1 0 0)">两</text>
<g transform="translate(1148,0)">
<text font-family="monospace" stroke="none" transform="scale(71.759) matrix(1 0 0 -1 0 0)">侧</text>
</g>
<g transform="translate(2296,0)">
<text font-family="monospace" stroke="none" transform="scale(71.759) matrix(1 0 0 -1 0 0)">导</text>
</g>
<g transform="translate(3444,0)">
<text font-family="monospace" stroke="none" transform="scale(71.759) matrix(1 0 0 -1 0 0)">数</text>
</g>
<g transform="translate(4592,0)">
<text font-family="monospace" stroke="none" transform="scale(71.759) matrix(1 0 0 -1 0 0)">的</text>
</g>
<g transform="translate(5740,0)">
<text font-family="monospace" stroke="none" transform="scale(71.759) matrix(1 0 0 -1 0 0)">平</text>
</g>
<g transform="translate(6888,0)">
<text font-family="monospace" stroke="none" transform="scale(71.759) matrix(1 0 0 -1 0 0)">均</text>
</g>
<g transform="translate(8037,0)">
<text font-family="monospace" stroke="none" transform="scale(71.759) matrix(1 0 0 -1 0 0)">值</text>
</g>
</g>
<g transform="translate(0,-18)">
<text font-family="monospace" stroke="none" transform="scale(71.759) matrix(1 0 0 -1 0 0)">对</text>
 <use xlink:href="#E1-MJMAIN-43" x="1148" y="0"></use>
 <use xlink:href="#E1-MJMAIN-61" x="1870" y="0"></use>
 <use xlink:href="#E1-MJMAIN-74" x="2371" y="0"></use>
 <use xlink:href="#E1-MJMAIN-6D" x="2760" y="0"></use>
 <use xlink:href="#E1-MJMAIN-75" x="3594" y="0"></use>
 <use xlink:href="#E1-MJMAIN-6C" x="4150" y="0"></use>
 <use xlink:href="#E1-MJMAIN-6C" x="4429" y="0"></use>
 <use xlink:href="#E1-MJMAIN-2D" x="4707" y="0"></use>
 <use xlink:href="#E1-MJMAIN-52" x="5041" y="0"></use>
 <use xlink:href="#E1-MJMAIN-6F" x="5777" y="0"></use>
 <use xlink:href="#E1-MJMAIN-6D" x="6278" y="0"></use>
<g transform="translate(7111,0)">
<text font-family="monospace" stroke="none" transform="scale(71.759) matrix(1 0 0 -1 0 0)">的</text>
</g>
<g transform="translate(8259,0)">
<text font-family="monospace" stroke="none" transform="scale(71.759) matrix(1 0 0 -1 0 0)">扩</text>
</g>
<g transform="translate(9407,0)">
<text font-family="monospace" stroke="none" transform="scale(71.759) matrix(1 0 0 -1 0 0)">展</text>
</g>
<g transform="translate(10556,0)">
<text font-family="monospace" stroke="none" transform="scale(71.759) matrix(1 0 0 -1 0 0)">，</text>
</g>
<g transform="translate(11704,0)">
<text font-family="monospace" stroke="none" transform="scale(71.759) matrix(1 0 0 -1 0 0)">并</text>
</g>
<g transform="translate(12852,0)">
<text font-family="monospace" stroke="none" transform="scale(71.759) matrix(1 0 0 -1 0 0)">用</text>
</g>
 <use xlink:href="#E1-MJMATHI-63" x="14000" y="0"></use>
<g transform="translate(14434,0)">
<text font-family="monospace" stroke="none" transform="scale(71.759) matrix(1 0 0 -1 0 0)">来</text>
<g transform="translate(1148,0)">
<text font-family="monospace" stroke="none" transform="scale(71.759) matrix(1 0 0 -1 0 0)">调</text>
</g>
<g transform="translate(2296,0)">
<text font-family="monospace" stroke="none" transform="scale(71.759) matrix(1 0 0 -1 0 0)">节</text>
</g>
</g>
</g>
<g transform="translate(3198,-1973)">
<text font-family="monospace" stroke="none" transform="scale(71.759) matrix(1 0 0 -1 0 0)">根</text>
<g transform="translate(1148,0)">
<text font-family="monospace" stroke="none" transform="scale(71.759) matrix(1 0 0 -1 0 0)">据</text>
</g>
<g transform="translate(2296,0)">
<text font-family="monospace" stroke="none" transform="scale(71.759) matrix(1 0 0 -1 0 0)">两</text>
</g>
<g transform="translate(3444,0)">
<text font-family="monospace" stroke="none" transform="scale(71.759) matrix(1 0 0 -1 0 0)">侧</text>
</g>
<g transform="translate(4592,0)">
<text font-family="monospace" stroke="none" transform="scale(71.759) matrix(1 0 0 -1 0 0)">点</text>
</g>
<g transform="translate(5740,0)">
<text font-family="monospace" stroke="none" transform="scale(71.759) matrix(1 0 0 -1 0 0)">来</text>
</g>
<g transform="translate(6888,0)">
<text font-family="monospace" stroke="none" transform="scale(71.759) matrix(1 0 0 -1 0 0)">计</text>
</g>
<g transform="translate(8037,0)">
<text font-family="monospace" stroke="none" transform="scale(71.759) matrix(1 0 0 -1 0 0)">算</text>
</g>
<g transform="translate(9185,0)">
<text font-family="monospace" stroke="none" transform="scale(71.759) matrix(1 0 0 -1 0 0)">导</text>
</g>
<g transform="translate(10333,0)">
<text font-family="monospace" stroke="none" transform="scale(71.759) matrix(1 0 0 -1 0 0)">数</text>
</g>
</g>
</g>
</g>
</g>
</svg>